<?xml version="1.0" encoding="UTF-8"?>
<svg width="518px" height="451px" viewBox="0 0 518 451" version="1.1" xmlns="http://www.w3.org/2000/svg" xmlns:xlink="http://www.w3.org/1999/xlink">
    <!-- Generator: Sketch 3.6.1 (26313) - http://www.bohemiancoding.com/sketch -->
    <title>Group 15</title>
    <desc>Created with Sketch.</desc>
    <defs></defs>
    <g id="Welcome" stroke="none" stroke-width="1" fill="none" fill-rule="evenodd">
        <g id="Group-15">
            <g id="Group" transform="translate(21.762202, 347.750467)" fill="#084C61">
                <rect id="Rectangle-19" x="0" y="0" width="60.4505606" height="102.634687" rx="6"></rect>
                <rect id="Rectangle-19" x="316.760937" y="0" width="81.0037512" height="102.634687" rx="6"></rect>
                <rect id="Rectangle-21" x="90.6758409" y="0" width="195.859816" height="102.634687" rx="6"></rect>
            </g>
            <g id="Group-7" fill="#177E89">
                <path d="M99.8229281,279.768969 C97.113897,280.009484 94.3709435,280.132321 91.599237,280.132321 C41.0103753,280.132321 0,239.211548 0,188.733216 C0,144.215129 31.8975079,107.130826 74.1317174,98.994007 C91.7231602,41.678832 145.170044,0 208.372857,0 C264.865513,0 313.563821,33.298657 335.829787,81.2986983 C347.946634,76.3325565 361.216407,73.5940843 375.127186,73.5940843 C432.286029,73.5940843 478.622427,119.829243 478.622427,176.863203 C478.622427,178.178415 478.597787,179.487886 478.548942,180.791179 C501.083592,185.617372 517.976752,205.607636 517.976752,229.534889 C517.976752,250.707272 504.749651,268.797049 486.091015,276.025689 C481.026846,278.64983 475.275331,280.132321 469.177318,280.132321 L105.016182,280.132321 C103.253408,280.132321 101.519578,280.008462 99.8229281,279.768969 Z" id="Combined-Shape"></path>
            </g>
            <path d="M67.1730211,315.846358 L56.9704348,283.276176 L56.9704348,327.443317 L60.6031738,327.443317 L70.8057602,360.0135 L70.8057602,315.846358 L67.1730211,315.846358 Z" id="Combined-Shape" fill="#FFC94B" transform="translate(63.888097, 321.644838) rotate(-330.000000) translate(-63.888097, -321.644838) "></path>
            <path d="M379.097914,315.846358 L368.895327,283.276176 L368.895327,327.443317 L372.528066,327.443317 L382.730653,360.0135 L382.730653,315.846358 L379.097914,315.846358 Z" id="Combined-Shape" fill="#FFC94B" transform="translate(375.812990, 321.644838) rotate(-348.000000) translate(-375.812990, -321.644838) "></path>
            <path d="M206.644664,315.715416 L196.442078,283.145233 L196.442078,327.312375 L200.074817,327.312375 L210.277403,359.882557 L210.277403,315.715416 L206.644664,315.715416 Z" id="Combined-Shape" fill="#FFC94B" transform="translate(203.359740, 321.513895) rotate(-348.000000) translate(-203.359740, -321.513895) "></path>
            <g id="Group-13" transform="translate(126.000000, 57.000000)">
                <ellipse id="Oval-8" fill="#084C61" cx="82.817268" cy="82.7114827" rx="82.817268" ry="82.7114827"></ellipse>
                <g id="Group-12" transform="translate(74.683429, 25.847338)" stroke="#9BF6FF" fill="#177E89">
                    <rect id="Rectangle-33" x="0.739439893" y="0" width="7.39439893" height="62.033612" rx="2"></rect>
                    <rect id="Rectangle-33" transform="translate(25.440030, 72.608021) rotate(117.000000) translate(-25.440030, -72.608021) " x="21.7428308" y="46.8027222" width="7.39439893" height="51.6105986" rx="2"></rect>
                    <path d="M4.43663936,66.4645843 C6.88692761,66.4645843 8.87327871,64.4807705 8.87327871,62.033612 C8.87327871,59.5864536 6.88692761,57.6026397 4.43663936,57.6026397 C1.9863511,57.6026397 0,59.5864536 0,62.033612 C0,64.4807705 1.9863511,66.4645843 4.43663936,66.4645843 Z" id="Oval-8"></path>
                </g>
            </g>
            <g id="Group-11" transform="translate(449.752171, 350.165401)">
                <rect id="Rectangle-36" fill="#107696" x="10.3084114" y="0" width="12.8855142" height="32.7741016" rx="2"></rect>
                <rect id="Rectangle-36" fill="#107696" x="10.3084114" y="62.6157836" width="12.8855142" height="32.7741016" rx="2"></rect>
                <rect id="Rectangle-36" fill="#084C61" x="0" y="31.3941394" width="32.6433027" height="32.7741016" rx="2"></rect>
            </g>
            <g id="Group-14" transform="translate(30.225280, 381.559541)">
                <rect id="Rectangle-37" fill="#177E89" x="0" y="0" width="44.7334148" height="32.6016063" rx="3"></rect>
                <text id="4:00" stroke="#9BF5FF" font-family="HelveticaNeue-Medium, Helvetica Neue" font-size="16.9027069" font-weight="400" letter-spacing="0.079940103" fill="#9BF5FF">
                    <tspan x="4.83604485" y="22.0373345">4:00</tspan>
                </text>
            </g>
            <path d="M460.101665,315.846358 L449.899079,283.276176 L449.899079,327.443317 L453.531818,327.443317 L463.734404,360.0135 L463.734404,315.846358 L460.101665,315.846358 Z" id="Combined-Shape" fill="#FFC94B" transform="translate(456.816741, 321.644838) scale(-1, 1) rotate(-330.000000) translate(-456.816741, -321.644838) "></path>
            <g id="Group-14" transform="translate(452.170193, 388.804342)">
                <rect id="Rectangle-37" fill="#177E89" x="7.81597009e-14" y="0" width="27.8072579" height="19.3194704" rx="3"></rect>
                <text id="4:00" stroke="#9BF5FF" font-family="HelveticaNeue-Medium, Helvetica Neue" font-size="11.2684712" font-weight="400" letter-spacing="0.079940103" fill="#9BF5FF">
                    <tspan x="2.41802242" y="13.4149338">4:00</tspan>
                </text>
            </g>
            <g id="Group-14" transform="translate(345.777207, 374.314739)">
                <rect id="Rectangle-37" fill="#177E89" x="0" y="0" width="66.4956166" height="48.298676" rx="3"></rect>
                <text id="4:00" stroke="#9BF5FF" font-family="HelveticaNeue-Medium, Helvetica Neue" font-size="25.0410472" font-weight="400" letter-spacing="0.079940103" fill="#9BF5FF">
                    <tspan x="8.46307848" y="32.4522683">4:00</tspan>
                </text>
            </g>
            <g id="Group-14" transform="translate(126.946177, 365.862471)">
                <rect id="Rectangle-37" fill="#177E89" x="0" y="0" width="166.843547" height="67.6181465" rx="3"></rect>
                <text id="4:00" stroke="#9BF5FF" font-family="HelveticaNeue-Medium, Helvetica Neue" font-size="48.7646038" font-weight="400" letter-spacing="0.205560267" fill="#9BF5FF">
                    <tspan x="29.0162691" y="51.6224007">4:00</tspan>
                </text>
            </g>
        </g>
    </g>
</svg>