<?xml version="1.0" encoding="UTF-8"?>
<svg width="727px" height="320px" viewBox="0 0 727 320" version="1.1" xmlns="http://www.w3.org/2000/svg" xmlns:xlink="http://www.w3.org/1999/xlink">
    <!-- Generator: Sketch 3.6.1 (26313) - http://www.bohemiancoding.com/sketch -->
    <title>Group 16</title>
    <desc>Created with Sketch.</desc>
    <defs></defs>
    <g id="Welcome" stroke="none" stroke-width="1" fill="none" fill-rule="evenodd">
        <g id="Group-16">
            <g id="Group" transform="translate(620.000000, 89.000000)">
                <rect id="Rectangle-72" fill="#177E89" x="0" y="0" width="106" height="135" rx="13"></rect>
                <g id="Group-13" transform="translate(11.000000, 21.000000)">
                    <ellipse id="Oval-8" fill="#084C61" cx="41.9075332" cy="41.8540033" rx="41.9075332" ry="41.8540033"></ellipse>
                    <g id="Group-12" transform="translate(37.791615, 13.079376)" stroke="#9BF6FF" fill="#177E89">
                        <rect id="Rectangle-33" x="0.374174404" y="0" width="3.74174404" height="31.3905025" rx="2"></rect>
                        <rect id="Rectangle-33" transform="translate(12.873268, 36.741408) rotate(117.000000) translate(-12.873268, -36.741408) " x="11.0023963" y="23.6833052" width="3.74174404" height="26.1162065" rx="2"></rect>
                        <path d="M2.24504642,33.6326812 C3.48495132,33.6326812 4.49009284,32.6288236 4.49009284,31.3905025 C4.49009284,30.1521813 3.48495132,29.1483237 2.24504642,29.1483237 C1.00514152,29.1483237 0,30.1521813 0,31.3905025 C0,32.6288236 1.00514152,33.6326812 2.24504642,33.6326812 Z" id="Oval-8"></path>
                    </g>
                </g>
            </g>
            <path d="M235.73614,199.359119 C246.375276,196.399359 263.952691,194 275.005574,194 L717.994426,194 C729.0432,194 729.538664,196.912274 719.085106,200.510243 L541.914894,261.489757 C531.468487,265.085265 514.038844,268 503.000978,268 L8.99902151,268 C-2.04613308,268 -2.37610341,265.600871 8.26386043,262.640881 L235.73614,199.359119 Z" id="Rectangle-104" fill="#014357"></path>
            <path d="M235.241522,199.359119 C245.880659,196.399359 263.458074,194 274.510956,194 L717.499809,194 C728.548582,194 729.044047,196.912274 718.590488,200.510243 L541.420277,261.489757 C530.973869,265.085265 513.544227,268 502.506361,268 L8.50440422,268 C-2.54075037,268 -2.8707207,265.600871 7.76924314,262.640881 L235.241522,199.359119 Z" id="Rectangle-104" fill="#014357"></path>
            <g id="Group" transform="translate(1.000000, 185.000000)">
                <rect id="Rectangle-72" fill="#177E89" x="0" y="0" width="106" height="135" rx="13"></rect>
                <g id="Group-13" transform="translate(11.000000, 21.000000)">
                    <ellipse id="Oval-8" fill="#084C61" cx="41.9075332" cy="41.8540033" rx="41.9075332" ry="41.8540033"></ellipse>
                    <g id="Group-12" transform="translate(37.791615, 13.079376)" stroke="#9BF6FF" fill="#177E89">
                        <rect id="Rectangle-33" x="0.374174404" y="0" width="3.74174404" height="31.3905025" rx="2"></rect>
                        <rect id="Rectangle-33" transform="translate(12.873268, 36.741408) rotate(117.000000) translate(-12.873268, -36.741408) " x="11.0023963" y="23.6833052" width="3.74174404" height="26.1162065" rx="2"></rect>
                        <path d="M2.24504642,33.6326812 C3.48495132,33.6326812 4.49009284,32.6288236 4.49009284,31.3905025 C4.49009284,30.1521813 3.48495132,29.1483237 2.24504642,29.1483237 C1.00514152,29.1483237 0,30.1521813 0,31.3905025 C0,32.6288236 1.00514152,33.6326812 2.24504642,33.6326812 Z" id="Oval-8"></path>
                    </g>
                </g>
            </g>
            <g id="Group-10" transform="translate(138.000000, 0.000000)">
                <g id="Group-7" fill="#177E89">
                    <path d="M87.0825547,243.928596 C84.7257168,244.137035 82.3394726,244.243483 79.9282918,244.243483 C35.7851152,244.243483 0,208.565229 0,164.553872 C0,125.670764 27.931537,93.2919358 64.8812906,86.2742278 C80.2430892,36.3211266 126.870659,0 182.006891,0 C231.276902,0 273.752492,29.0035036 293.194866,70.8202071 C303.726215,66.5301477 315.251681,64.1656607 327.331058,64.1656607 C377.207114,64.1656607 417.639647,104.477454 417.639647,154.204572 C417.639647,155.351287 417.618146,156.492996 417.575525,157.62932 C437.238965,161.83721 451.979714,179.266445 451.979714,200.128284 C451.979714,218.557685 440.476034,234.308281 424.237315,240.631645 C419.809495,242.939118 414.776228,244.243483 409.438956,244.243483 L91.5947542,244.243483 C90.0632475,244.243483 88.5568103,244.136152 87.0825547,243.928596 Z" id="Combined-Shape"></path>
                    <path d="M87.0825547,243.928596 C84.7257168,244.137035 82.3394726,244.243483 79.9282918,244.243483 C35.7851152,244.243483 0,208.565229 0,164.553872 C0,125.670764 27.931537,93.2919358 64.8812906,86.2742278 C80.2430892,36.3211266 126.870659,0 182.006891,0 C231.276902,0 273.752492,29.0035036 293.194866,70.8202071 C303.726215,66.5301477 315.251681,64.1656607 327.331058,64.1656607 C377.207114,64.1656607 417.639647,104.477454 417.639647,154.204572 C417.639647,155.351287 417.618146,156.492996 417.575525,157.62932 C437.238965,161.83721 451.979714,179.266445 451.979714,200.128284 C451.979714,218.557685 440.476034,234.308281 424.237315,240.631645 C419.809495,242.939118 414.776228,244.243483 409.438956,244.243483 L91.5947542,244.243483 C90.0632475,244.243483 88.5568103,244.136152 87.0825547,243.928596 Z" id="Combined-Shape"></path>
                </g>
                <g id="Group-13" transform="translate(109.000000, 57.000000)">
                    <g id="Group-8">
                        <g id="Group-9">
                            <ellipse id="Oval-8" fill="#084C61" cx="83.8150664" cy="83.7080066" rx="83.8150664" ry="83.7080066"></ellipse>
                            <g id="Group-12" transform="translate(75.583230, 26.158752)" stroke="#9BF6FF" fill="#177E89">
                                <rect id="Rectangle-33" x="0.748348807" y="0" width="7.48348807" height="62.781005" rx="2"></rect>
                                <rect id="Rectangle-33" transform="translate(25.746537, 73.482817) rotate(117.000000) translate(-25.746537, -73.482817) " x="22.0047926" y="47.3666104" width="7.48348807" height="52.232413" rx="2"></rect>
                                <path d="M4.49009284,67.2653625 C6.96990265,67.2653625 8.98018569,65.2576472 8.98018569,62.781005 C8.98018569,60.3043627 6.96990265,58.2966475 4.49009284,58.2966475 C2.01028304,58.2966475 0,60.3043627 0,62.781005 C0,65.2576472 2.01028304,67.2653625 4.49009284,67.2653625 Z" id="Oval-8"></path>
                            </g>
                        </g>
                    </g>
                </g>
            </g>
        </g>
    </g>
</svg>